{"title":"Hercules 2014 EXTENDED 720p HDRIP x264 AC3 TiTAN","uid":11255491,"size":3225416295,"categoryP":"video","categoryS":"hd___movies","magnet":"?xt=urn:btih:8dbeaee7b9970629f36d057cbf9091032fca3720&amp;dn=Hercules+2014+EXTENDED+720p+HDRIP+x264+AC3+TiTAN&amp;tr=udp%3A%2F%2Ftracker.openbittorrent.com%3A80&amp;tr=udp%3A%2F%2Fopen.demonii.com%3A1337&amp;tr=udp%3A%2F%2Ftracker.coppersurfer.tk%3A6969&amp;tr=udp%3A%2F%2Fexodus.desync.com%3A6969","seeders":2,"leechers":0,"uploader":"TvTeam","files":3,"time":1413851174,"description":" &lt;a href=&quot;http://www.torrenting.com&quot; rel=&quot;nofollow&quot; target=&quot;_NEW&quot;&gt;http://www.torrenting.com&lt;/a&gt;\n\nSign up is OPEN - for time being. Come and have fun.\n\n\n....[IMG]http://i.imgur.com/WMAcrnA.jpg[/IMG]\n &lt;a href=&quot;\nhttp://www.imdb.com/title/tt1267297/&quot; rel=&quot;nofollow&quot; target=&quot;_NEW&quot;&gt;\nhttp://www.imdb.com/title/tt1267297/&lt;/a&gt;\n\nSource: 720p (PlAYNOW) THX\n\nGeneral\n\nFormat                                   : Matroska\nFormat version                           : Version 2\nFile size                                : 3.00 GiB\nDuration                                 : 1h 41mn\nOverall bit rate mode                    : Variable\nOverall bit rate                         : 4 232 Kbps\nEncoded date                             : UTC 2014-10-21 09:19:10\nWriting application                      : mkvmerge v7.2.0 ('On Every Street') \n\nVideo\nID                                       : 1\nFormat                                   : AVC\nFormat/Info                              : Advanced Video Codec\nFormat profile                           : &lt;a class=&quot;__cf_email__&quot; href=&quot;/cdn-cgi/l/email-protection&quot; data-cfemail=&quot;d29abbb5ba929ee6fce3&quot;&gt;[email&amp;#160;protected]&lt;/a&gt;&lt;script cf-hash='f9e31' type=&quot;text/javascript&quot;&gt;\n/* &lt;![CDATA[ */!function(){try{var t=&quot;currentScript&quot;in document?document.currentScript:function(){for(var t=document.getElementsByTagName(&quot;script&quot;),e=t.length;e--;)if(t[e].getAttribute(&quot;cf-hash&quot;))return t[e]}();if(t&amp;&amp;t.previousSibling){var e,r,n,i,c=t.previousSibling,a=c.getAttribute(&quot;data-cfemail&quot;);if(a){for(e=&quot;&quot;,r=parseInt(a.substr(0,2),16),n=2;a.length-n;n+=2)i=parseInt(a.substr(n,2),16)^r,e+=String.fromCharCode(i);e=document.createTextNode(e),c.parentNode.replaceChild(e,c)}}}catch(u){}}();/* ]]&gt; */&lt;/script&gt;\nFormat settings, CABAC                   : Yes\nFormat settings, ReFrames                : 3 frames\nCodec ID                                 : V_MPEG4/ISO/AVC\nDuration                                 : 1h 41mn\nBit rate mode                            : Variable\nBit rate                                 : 3 700 Kbps\nMaximum bit rate                         : 40.0 Mbps\nWidth                                    : 1 280 pixels\nHeight                                   : 532 pixels\nDisplay aspect ratio                     : 2.40:1\nOriginal display aspect ratio            : 2.35:1\nFrame rate mode                          : Constant\nFrame rate                               : 23.976 fps\nColor space                              : YUV\nChroma subsampling                       : 4:2:0\nBit depth                                : 8 bits\nScan type                                : Progressive\nBits/(Pixel*Frame)                       : 0.227\nStream size                              : 2.63 GiB (87%)\nColor primaries                          : BT.709\nTransfer characteristics                 : BT.709\nMatrix coefficients                      : BT.709\n\nAudio\nID                                       : 2\nFormat                                   : AC-3\nFormat/Info                              : Audio Coding 3\nMode extension                           : CM (complete main)\nFormat settings, Endianness              : Big\nCodec ID                                 : A_AC3\nDuration                                 : 1h 41mn\nBit rate mode                            : Constant\nBit rate                                 : 448 Kbps\nChannel(s)                               : 6 channels\nChannel positions                        : Front: L C R, Side: L R, LFE\nSampling rate                            : 48.0 KHz\nBit depth                                : 16 bits\nCompression mode                         : Lossy\nStream size                              : 326 MiB (11%)\nLanguage                                 : English\nDefault                                  : Yes\nForced                                   : No\n\n[IMG]http://i.imgur.com/TlgqtDL.jpg[/IMG]\n[IMG]http://i.imgur.com/Z6iMk4Z.jpg[/IMG]\n[IMG]http://i.imgur.com/n3ncqnj.png[/IMG]\n[IMG]http://i.imgur.com/vf5HcV9.jpg[/IMG]\n[IMG]http://i.imgur.com/jZVPzEN.jpg[/IMG]","torrent":{"xt":"urn:btih:8dbeaee7b9970629f36d057cbf9091032fca3720","amp;dn":"Hercules+2014+EXTENDED+720p+HDRIP+x264+AC3+TiTAN","amp;tr":["udp%3A%2F%2Ftracker.openbittorrent.com%3A80","udp%3A%2F%2Fopen.demonii.com%3A1337","udp%3A%2F%2Ftracker.coppersurfer.tk%3A6969","udp%3A%2F%2Fexodus.desync.com%3A6969"],"infoHash":"8dbeaee7b9970629f36d057cbf9091032fca3720","infoHashBuffer":{"type":"Buffer","data":[141,190,174,231,185,151,6,41,243,109,5,124,191,144,145,3,47,202,55,32]},"announce":[],"urlList":[]}}